<svg width="34" height="34" viewBox="0 0 34 34" fill="none" xmlns="http://www.w3.org/2000/svg">
<g clip-path="url(#clip0_49_14254)">
<path d="M9.0864 9.08653C9.61757 8.5552 9.91597 7.83466 9.91597 7.08336C9.91597 6.33206 9.61757 5.61152 9.0864 5.08019L7.08324 3.07703L3.0769 7.08336L5.08007 9.08653C5.6114 9.61769 6.33194 9.91609 7.08324 9.91609C7.83454 9.91609 8.55508 9.61769 9.0864 9.08653Z" stroke="black" stroke-width="2" stroke-linecap="round" stroke-linejoin="round"/>
<path d="M24.9135 24.9135C24.3824 25.4448 24.084 26.1654 24.084 26.9167C24.084 27.6679 24.3824 28.3885 24.9135 28.9198L26.9167 30.923L30.923 26.9167L28.9199 24.9135C28.3885 24.3823 27.668 24.0839 26.9167 24.0839C26.1654 24.0839 25.4449 24.3823 24.9135 24.9135V24.9135Z" stroke="black" stroke-width="2" stroke-linecap="round" stroke-linejoin="round"/>
<path d="M9.20825 9.20831L24.7916 24.7916" stroke="black" stroke-width="2" stroke-linecap="round" stroke-linejoin="round"/>
<path d="M31.1666 3.54169C17.024 7.22644 6.195 14.807 2.83325 31.1667C16.9758 27.4819 27.8048 19.9014 31.1666 3.54169Z" stroke="black" stroke-width="2" stroke-linecap="round" stroke-linejoin="round"/>
<path d="M9.20825 17.7083L16.2916 24.7916" stroke="black" stroke-width="2" stroke-linecap="round" stroke-linejoin="round"/>
<path d="M17.7083 9.20831L24.7916 16.2916" stroke="black" stroke-width="2" stroke-linecap="round" stroke-linejoin="round"/>
</g>
<defs>
<clipPath id="clip0_49_14254">
<rect width="34" height="34" fill="white"/>
</clipPath>
</defs>
</svg>
